<?xml version="1.0" standalone="no"?><!DOCTYPE svg PUBLIC "-//W3C//DTD SVG 1.1//EN" "http://www.w3.org/Graphics/SVG/1.1/DTD/svg11.dtd"><svg t="1586168716656" class="icon" viewBox="0 0 1024 1024" version="1.1" xmlns="http://www.w3.org/2000/svg" p-id="1851" xmlns:xlink="http://www.w3.org/1999/xlink" width="200" height="200"><defs><style type="text/css"></style></defs><path d="M507.2 537.28c-108.544 0-196.544-89.6-196.544-200.064 0-110.528 88-200.064 196.544-200.064 108.544 0 196.544 89.6 196.544 200.064-0.064 110.528-88 200.064-196.544 200.064m134.4 36.608A274.176 274.176 0 0 0 775.68 337.28C775.68 186.368 655.424 64 507.2 64S238.656 186.368 238.656 337.28c0 102.72 55.68 192.192 138.048 238.848-135.424 54.784-231.232 189.44-231.232 346.816 0 20.48 16.32 37.12 36.48 37.12 20.096 0 36.48-16.64 36.48-37.12 0.192-164.992 131.648-298.688 293.888-298.688 160.32 0 290.688 130.752 293.76 293.184a36.8 36.8 0 0 0 36.096 42.624c20.096 0 36.48-16.64 36.48-37.12-0.128-159.616-98.624-295.808-237.056-349.056" p-id="1852"></path></svg>