<?xml version="1.0" standalone="no"?><!DOCTYPE svg PUBLIC "-//W3C//DTD SVG 1.1//EN" "http://www.w3.org/Graphics/SVG/1.1/DTD/svg11.dtd"><svg t="1586230771737" class="icon" viewBox="0 0 1024 1024" version="1.1" xmlns="http://www.w3.org/2000/svg" p-id="2159" xmlns:xlink="http://www.w3.org/1999/xlink" width="200" height="200"><defs><style type="text/css"></style></defs><path d="M766.976 692.224h-190.464c-14.336 0-26.112-11.776-26.112-26.112s11.776-26.112 26.112-26.112h190.464c14.336 0 26.112 11.776 26.112 26.112s-11.776 26.112-26.112 26.112z" fill="#666666" p-id="2160"></path><path d="M645.632 761.344v-190.464c0-14.336 11.776-26.112 26.112-26.112s26.112 11.776 26.112 26.112v190.464c0 14.336-11.776 26.112-26.112 26.112s-26.112-11.776-26.112-26.112zM508.928 855.552c-6.656 0-12.8-2.56-17.92-7.168l-299.008-299.008c-43.008-43.008-67.072-100.864-67.072-161.792s24.064-118.784 67.072-161.792c42.496-42.496 103.424-58.368 171.008-45.056 57.856 11.264 116.736 43.52 161.28 88.064 9.728 9.728 9.728 26.112 0 35.84-9.728 9.728-26.112 9.728-35.84 0C415.232 231.424 294.912 194.048 227.84 261.12c-33.792 33.792-52.224 78.336-52.224 125.952s18.432 92.672 52.224 125.952l299.008 299.008c9.728 9.728 9.728 26.112 0 35.84-5.12 5.632-11.264 7.68-17.92 7.68z" fill="#666666" p-id="2161"></path><path d="M812.544 556.544c-6.656 0-12.8-2.56-17.92-7.168-9.728-9.728-9.728-26.112 0-35.84 33.792-33.792 52.224-78.336 52.224-125.952s-18.432-92.672-52.224-125.952c-41.472-41.472-98.816-38.4-129.536-33.28-50.176 8.704-101.888 35.84-138.24 72.192-9.728 9.728-26.112 9.728-35.84 0-9.728-9.728-9.728-26.112 0-35.84 44.032-44.032 104.448-75.776 165.376-86.016 69.632-12.288 131.584 4.608 174.08 47.104 43.008 43.008 67.072 100.864 67.072 161.792 0 60.928-23.552 118.784-67.072 161.792-5.12 4.608-11.776 7.168-17.92 7.168z" fill="#666666" p-id="2162"></path></svg>